<?xml version="1.0" encoding="utf-8"?>
<!-- Generator: Adobe Illustrator 24.2.1, SVG Export Plug-In . SVG Version: 6.00 Build 0)  -->
<svg version="1.1" id="Calque_1" xmlns="http://www.w3.org/2000/svg" xmlns:xlink="http://www.w3.org/1999/xlink" x="0px" y="0px"
	 viewBox="0 0 480 455" style="enable-background:new 0 0 480 455;" xml:space="preserve">
<style type="text/css">
	.st0{fill:url(#SVGID_1_);}
	.st1{fill:url(#SVGID_2_);}
	.st2{opacity:0.15;fill:#FAFFF5;enable-background:new    ;}
	.st3{opacity:0.35;fill:#A0C481;enable-background:new    ;}
	.st4{opacity:0.35;fill:#6DA43D;enable-background:new    ;}
	.st5{fill:url(#SVGID_3_);}
	.st6{fill:url(#SVGID_4_);}
	.st7{opacity:0.91;fill:url(#SVGID_5_);enable-background:new    ;}
	.st8{fill:url(#SVGID_6_);}
	.st9{fill:url(#SVGID_7_);}
	.st10{fill:url(#SVGID_8_);}
	.st11{fill:url(#SVGID_9_);}
	.st12{fill:url(#SVGID_10_);}
	.st13{fill:url(#SVGID_11_);}
	.st14{fill:url(#SVGID_12_);}
	.st15{fill:url(#SVGID_13_);}
	.st16{fill:url(#SVGID_14_);}
	.st17{fill:url(#SVGID_15_);}
	.st18{fill:url(#SVGID_16_);}
	.st19{fill:url(#SVGID_17_);}
	.st20{fill:url(#SVGID_18_);}
	.st21{fill:url(#SVGID_19_);}
	.st22{fill:url(#SVGID_20_);}
	.st23{fill:url(#SVGID_21_);}
	.st24{opacity:0.25;fill:#509217;enable-background:new    ;}
	.st25{opacity:0.6;fill:url(#SVGID_22_);enable-background:new    ;}
	.st26{opacity:0.17;fill:#EEFDDA;enable-background:new    ;}
</style>
<radialGradient id="SVGID_1_" cx="-123.805" cy="647.8872" r="1.4371" gradientTransform="matrix(319.2998 0 0 -319.2997 39578.9414 207005.0625)" gradientUnits="userSpaceOnUse">
    <stop  offset="0" style="stop-color:#F2FEE2"/>
    <stop  offset="0.5" style="stop-color:#EEFDDA"/>
    <stop  offset="1" style="stop-color:#6DA43D"/>
</radialGradient>
<radialGradient id="SVGID_2_" cx="-125.4156" cy="646.6849" r="4.9643" gradientTransform="matrix(120.7147 0 0 -120.7146 15002.5713 78268.7422)" gradientUnits="userSpaceOnUse">
    <stop  offset="0" style="stop-color:#EEFDDA;stop-opacity:0"/>
    <stop  offset="0.5" style="stop-color:#C6DCB3;stop-opacity:0"/>
    <stop  offset="1" style="stop-color:#B9D3A2"/>
</radialGradient>
<radialGradient id="SVGID_3_" cx="-122.3454" cy="646.6321" r="1.7771" gradientTransform="matrix(160.2983 0 0 -160.2984 19990.7559 103863.8438)" gradientUnits="userSpaceOnUse">
    <stop  offset="0" style="stop-color:#F2FEE2"/>
    <stop  offset="0.5" style="stop-color:#EEFDDA"/>
    <stop  offset="1" style="stop-color:#6DA43D"/>
</radialGradient>
<radialGradient id="SVGID_4_" cx="-124.9146" cy="648.3539" r="1.7644" gradientTransform="matrix(-87.667 -134.2016 -134.2015 87.667 76409.2344 -73321.9844)" gradientUnits="userSpaceOnUse">
    <stop  offset="0" style="stop-color:#CFFA99"/>
    <stop  offset="0.5" style="stop-color:#C6DCB3;stop-opacity:0"/>
    <stop  offset="1" style="stop-color:#6DB31F"/>
</radialGradient>
<radialGradient id="SVGID_5_" cx="-120.2826" cy="647.8985" r="1.7477" gradientTransform="matrix(51.298 104.3754 104.3753 -51.298 -61066.668 46047.4414)" gradientUnits="userSpaceOnUse">
    <stop  offset="0" style="stop-color:#EEFDDA;stop-opacity:0"/>
    <stop  offset="0.5" style="stop-color:#C6DCB3;stop-opacity:0"/>
    <stop  offset="1" style="stop-color:#B9D3A2"/>
</radialGradient>
<radialGradient id="SVGID_6_" cx="-131.9908" cy="647.1099" r="5.1097" gradientTransform="matrix(0.1983 -36.8814 -36.8813 -0.1983 23842.6621 -4366.7471)" gradientUnits="userSpaceOnUse">
    <stop  offset="0" style="stop-color:#F2FEE2"/>
    <stop  offset="0.5" style="stop-color:#EEFDDA"/>
    <stop  offset="1" style="stop-color:#6DA43D"/>
</radialGradient>
<radialGradient id="SVGID_7_" cx="-122.899" cy="640.2884" r="3.1906" gradientTransform="matrix(28.4 0 0 -28.4 3476.5364 18396.2539)" gradientUnits="userSpaceOnUse">
    <stop  offset="0" style="stop-color:#EEFDDA;stop-opacity:0"/>
    <stop  offset="0.5" style="stop-color:#C6DCB3;stop-opacity:0"/>
    <stop  offset="1" style="stop-color:#B9D3A2"/>
</radialGradient>
<radialGradient id="SVGID_9_" cx="-124.5975" cy="648.2612" r="2.6251" gradientTransform="matrix(-105.0807 -145.651 -145.651 105.0807 81664.6797 -85767)" gradientUnits="userSpaceOnUse">
    <stop  offset="0" style="stop-color:#EEFDDA"/>
    <stop  offset="0.3797" style="stop-color:#EEFDDA"/>
    <stop  offset="1" style="stop-color:#6DA43D"/>
</radialGradient>
    <radialGradient id="SVGID_8_" cx="-125.1904" cy="648.749" r="2.7805" gradientTransform="matrix(-73.0182 -101.2096 -101.2096 73.0182 56705.1602 -59552.2344)" gradientUnits="userSpaceOnUse">
    <stop  offset="0" style="stop-color:#EEFDDA"/>
    <stop  offset="0.3797" style="stop-color:#EEFDDA"/>
    <stop  offset="1" style="stop-color:#6DA43D"/>
</radialGradient>
    <radialGradient id="SVGID_10_" cx="-126.1773" cy="649.0017" r="2.976" gradientTransform="matrix(-50.6061 -70.1444 -70.1444 50.6061 39379.3477 -41273.0039)" gradientUnits="userSpaceOnUse">
    <stop  offset="0" style="stop-color:#EEFDDA"/>
    <stop  offset="0.3797" style="stop-color:#EEFDDA"/>
    <stop  offset="1" style="stop-color:#6DA43D"/>
</radialGradient>
    <radialGradient id="SVGID_11_" cx="-124.8456" cy="644.3902" r="4.0168" gradientTransform="matrix(59.695 0 0 -59.695 7489.3125 38712.4688)" gradientUnits="userSpaceOnUse">
    <stop  offset="0" style="stop-color:#EEFDDA;stop-opacity:0"/>
    <stop  offset="0.5" style="stop-color:#C6DCB3;stop-opacity:0"/>
    <stop  offset="1" style="stop-color:#B9D3A2"/>
</radialGradient>
    <radialGradient id="SVGID_12_" cx="-132.3561" cy="648.4024" r="2.7668" gradientTransform="matrix(-7.8661 -30.7129 -30.7129 7.8661 19011.0195 -8943.1611)" gradientUnits="userSpaceOnUse">
    <stop  offset="0" style="stop-color:#F2FEE2"/>
    <stop  offset="0.5" style="stop-color:#EEFDDA"/>
    <stop  offset="1" style="stop-color:#6DA43D"/>
</radialGradient>
    <radialGradient id="SVGID_13_" cx="-122.009" cy="640.4008" r="3.4444" gradientTransform="matrix(24.8 0 0 -24.8 3173.0117 16027.5)" gradientUnits="userSpaceOnUse">
    <stop  offset="0" style="stop-color:#EEFDDA;stop-opacity:0"/>
    <stop  offset="0.5" style="stop-color:#C6DCB3;stop-opacity:0"/>
    <stop  offset="1" style="stop-color:#B9D3A2"/>
</radialGradient>
    <radialGradient id="SVGID_14_" cx="-125.7492" cy="648.8387" r="3.1058" gradientTransform="matrix(-52.7357 -73.0964 -73.0963 52.7357 41006.168 -43100.668)" gradientUnits="userSpaceOnUse">
    <stop  offset="0" style="stop-color:#EEFDDA"/>
    <stop  offset="0.3797" style="stop-color:#EEFDDA"/>
    <stop  offset="1" style="stop-color:#6DA43D"/>
</radialGradient>
    <radialGradient id="SVGID_15_" cx="-121.8494" cy="644.7859" r="4.4019" gradientTransform="matrix(52.4897 0 0 -52.4896 6573.7114 33921.7031)" gradientUnits="userSpaceOnUse">
    <stop  offset="0" style="stop-color:#EEFDDA;stop-opacity:0"/>
    <stop  offset="0.5" style="stop-color:#C6DCB3;stop-opacity:0"/>
    <stop  offset="1" style="stop-color:#B9D3A2"/>
</radialGradient>
    <radialGradient id="SVGID_16_" cx="-124.2741" cy="651.3256" r="5.1691" gradientTransform="matrix(-62.4569 -2.0568 -2.0568 62.4569 -6148.3818 -40811.5)" gradientUnits="userSpaceOnUse">
    <stop  offset="0" style="stop-color:#EEFDDA"/>
    <stop  offset="0.3797" style="stop-color:#EEFDDA"/>
    <stop  offset="1" style="stop-color:#6DA43D"/>
</radialGradient>
    <radialGradient id="SVGID_17_" cx="-122.3705" cy="645.0248" r="5.1652" gradientTransform="matrix(31.0432 0 0 -31.0432 3898.4668 19989.5684)" gradientUnits="userSpaceOnUse">
    <stop  offset="0" style="stop-color:#EEFDDA;stop-opacity:0"/>
    <stop  offset="0.5" style="stop-color:#C6DCB3;stop-opacity:0"/>
    <stop  offset="1" style="stop-color:#B9D3A2"/>
</radialGradient>
    <radialGradient id="SVGID_18_" cx="-126.7381" cy="646.5219" r="2.5715" gradientTransform="matrix(31.6682 -94.5757 -94.5757 -31.6682 65128.3633 8829.7871)" gradientUnits="userSpaceOnUse">
    <stop  offset="0" style="stop-color:#EEFDDA"/>
    <stop  offset="0.3797" style="stop-color:#EEFDDA"/>
    <stop  offset="1" style="stop-color:#6DA43D"/>
</radialGradient>
    <radialGradient id="SVGID_19_" cx="-125.4826" cy="646.1929" r="3.6335" gradientTransform="matrix(103.5063 0 0 -103.5062 12830.7842 67152.3516)" gradientUnits="userSpaceOnUse">
    <stop  offset="0" style="stop-color:#EEFDDA;stop-opacity:0"/>
    <stop  offset="0.5" style="stop-color:#C6DCB3;stop-opacity:0"/>
    <stop  offset="1" style="stop-color:#B9D3A2"/>
</radialGradient>
    <radialGradient id="SVGID_20_" cx="-125.3808" cy="646.8292" r="3.4084" gradientTransform="matrix(137.7 0 0 -137.7 17139.0469 89337.4766)" gradientUnits="userSpaceOnUse">
    <stop  offset="0" style="stop-color:#C6DCB3;stop-opacity:0"/>
    <stop  offset="0.5" style="stop-color:#A0C481;stop-opacity:0"/>
    <stop  offset="1" style="stop-color:#418903"/>
</radialGradient>
    <radialGradient id="SVGID_21_" cx="-122.3843" cy="645.7931" r="3.2746" gradientTransform="matrix(69.6774 0 0 -69.6773 8632.335 45083.2148)" gradientUnits="userSpaceOnUse">
    <stop  offset="0" style="stop-color:#EEFDDA;stop-opacity:0"/>
    <stop  offset="0.5" style="stop-color:#C6DCB3;stop-opacity:0"/>
    <stop  offset="1" style="stop-color:#B9D3A2"/>
</radialGradient>
    <radialGradient id="SVGID_22_" cx="-117.1479" cy="647.76" r="2.3243" gradientTransform="matrix(21.4367 43.6168 43.6169 -21.4366 -25367.7676 19193.5059)" gradientUnits="userSpaceOnUse">
    <stop  offset="0" style="stop-color:#EEFDDA;stop-opacity:0"/>
    <stop  offset="0.5" style="stop-color:#C6DCB3;stop-opacity:0"/>
    <stop  offset="1" style="stop-color:#B9D3A2"/>
</radialGradient>
<g id="Path" transform="translate(67.118129, 0.000000)">
	<path class="st0" d="M390.6,185.4c-0.1-0.4-0.7-0.4-0.8,0c-12.1,97.3-119.9,147.8-201.6,99.5c0.3,0.1,0.4,0.4,0.7,0.5
		c-3.9-2.9-8.2-5.7-12.4-8.3c-5.4-7.9-11.6-15.4-18.3-22.4c-7.2-7.6-11-17.9-10.1-28.1c0.1-1.8,0.5-3.7,1.1-5.5
		c3.9-14.2,15.3-26.2,31.4-30.4c-21.7,1.2-36.4-19.9-31.8-38.8c1.3-5.8,4.6-11.3,9.9-16c1.8-1.7,2.6-4.2,2.4-6.6
		c-2.1-15.4,3.6-29.8,13.8-39.7c8.8-8.5,20.9-13.5,34.3-12.9c4.1,0.1,6.3-4.5,3.9-7.6c-8-10.4-12.1-23.3-11.7-36.3
		C136,10.1,63.6,25.9,13.6,73.5c-0.8,0.7-0.7,2,0.1,2.5c3.9,2.8,8,5.3,12.1,7.6l0,0c-31.7,15.5-54.6,45.2-61,80.7
		c-0.8,4.6-1.3,9.1-1.6,13.7l0,0c-17.4,37.7-19.9,81.7-5.4,122.4c0.4,1.1,1.6,1.4,2.5,0.8c4.7-3.4,9.3-7.1,13.7-10.9
		c-0.1,29.5,8.4,58.9,25.4,84.4C29.6,420.3,82.1,446,136.7,442c0.8,0,1.4-0.8,1.4-1.6c0.1-8.4-1.3-16.3-4.1-24.1l0,0
		c38.3,23.3,85.5,31.8,132.1,20.5c0.8-0.1,1.2-0.8,1.2-1.6c-0.3-9.9-1.2-19.7-2.9-29.3c0.1,0.9,0.4,1.8,0.5,2.9
		C361.8,381.9,417.9,281.2,390.6,185.4z"/>
	<path class="st1" d="M389.8,185.5c-12.1,97.3-119.9,147.8-201.6,99.5c0.3,0.1,0.4,0.4,0.7,0.5c-3.9-2.9-8.2-5.7-12.4-8.3
		c-5.4-7.9-11.6-15.4-18.3-22.4c-0.7-0.7-1.3-1.4-2-2.2l-8.4,63.4C314.6,408.4,397,246,390.4,185.5C390.4,185,389.8,185,389.8,185.5
		z"/>
	<path class="st2" d="M363.2,272.3c13.8-21.6,21.8-43.5,25.1-60c1.7-8.2,2.2-15,2.4-19.6c0-2.4,0-4.2-0.1-5.4
		c-0.1-1.2-0.1-1.8-0.1-1.8s0,0.7,0.1,1.8c0.1,1.2,0.3,3,0.3,5.4c0,4.7-0.3,11.6-1.8,19.9c-2.9,16.6-10.7,38.9-24.6,60.6
		c-7,10.8-14.7,20.4-22.6,28.3s-15.6,14.2-22.7,18.9c-7,4.7-13,7.8-17.2,9.9c-4.3,1.8-6.7,2.9-6.7,2.9s2.4-1.2,6.6-3.2
		c4.1-2.2,10.1-5.5,17-10.3C332.5,310,349.5,293.8,363.2,272.3z"/>
	<path class="st3" d="M345.6,302.1c-3.6-9.5-6-18.1-7.9-26.2c-8.9,6.7-18.7,12.4-28.8,16.7c9.9,6.8,21.6,11.4,34.3,12.8
		C344.8,305.5,346.1,303.8,345.6,302.1z"/>
	<path class="st4" d="M347.4,297.7c-2.5-9.2-4.1-17.5-5.1-25.2c-7.8,6.4-16.2,11.8-25.1,16.4c8,5.7,17.4,9.7,27.6,11.8
		C346.4,300.9,347.8,299.4,347.4,297.7z"/>
	<path class="st5" d="M161,129.2c0.4,2.5-0.4,5-2.4,6.6c-24.1,21-4.3,60.6,27,54.2c37.9-7.9,97,23.4,118.1,70.5
		c9.3,20.8,28.3,36.9,52.2,41.7c1.7,0.4,3.2-1.3,2.8-2.9c-14.1-52.1-1.4-78.8-1.4-110.8c0-88.9-65.1-162.5-150.3-175.8
		c-0.8-0.1-1.4,0.3-1.7,1.1c-7.4,18.8-4.1,39.8,7.9,55.4c2.5,3.2,0.1,7.8-3.9,7.6C180.1,75.2,157.1,100.6,161,129.2z"/>
	<path class="st6" d="M161,129.2c0.4,2.5-0.4,5-2.4,6.6c-24.1,21-4.3,60.6,27,54.2c37.9-7.9,97,23.4,118.1,70.5
		c9.3,20.8,28.3,36.9,52.2,41.7c1.7,0.4,3.2-1.3,2.8-2.9c-14.1-52.1-1.4-78.8-1.4-110.8c0-88.9-65.1-162.5-150.3-175.8
		c-0.8-0.1-1.4,0.3-1.7,1.1c-7.4,18.8-4.1,39.8,7.9,55.4c2.5,3.2,0.1,7.8-3.9,7.6C180.1,75.2,157.1,100.6,161,129.2z"/>
	<path class="st7" d="M276.8,178.1c-2.9-17-12-32.3-25.6-42.9c86.8,27.9,57.1,116.4,78.6,146.2c-8-6.4-14.6-14.7-18.8-24.3
		c-15.4-34.4-48.4-59.3-79.7-70.2c-28.8-8.3-50.4-31.7-54.4-61.1C202.4,155.1,238.2,173.8,276.8,178.1z"/>
	<path class="st8" d="M-36.9,177.7c-1.8,32.3,10.4,63.9,33.7,86.5c-6.6,9.3-14.3,17.9-23,25.6c-4.3,3.8-8.8,7.5-13.7,10.9
		c-0.9,0.7-2.1,0.3-2.5-0.8C-56.7,259.4-54.2,215.5-36.9,177.7L-36.9,177.7z"/>
	<path class="st9" d="M-25.5,233.6c-10.4,22-14.3,46.9-15,67.6c0.3,0,0.4-0.1,0.7-0.3c4.7-3.4,9.3-7.1,13.7-10.9
		c8.7-7.8,16.3-16.3,23-25.6C-12.4,255.3-19.9,244.9-25.5,233.6z"/>

	<path class="st10" d="M133.9,416.1c2.6,7.8,4.1,15.6,4.1,24.1c0,0.8-0.7,1.6-1.4,1.6c-54.6,3.9-107-21.8-137.3-67.3
		c-17-25.5-25.4-54.8-25.4-84.4c8.7-7.8,16.3-16.3,23-25.6c3,2.9,6.2,5.7,9.6,8.3c0.7,0.5,1.6,0.4,2.2-0.1
		c8.4-9.2,15.9-18.9,22.6-29.2l0,0C39.8,320.7,115.5,362.5,133.9,416.1z"/>
	<path class="st3" d="M-24,311.7c3.6-4.6,6.8-9.5,9.7-14.5c5.8-9.6,10.4-19.9,13.9-30.4c-0.9-0.9-2-1.7-2.9-2.6
		c-6.6,9.3-14.3,17.9-23,25.6c0,7.5,0.5,14.9,1.6,22.2C-24.4,312.1-24.1,312-24,311.7z"/>
	<path class="st11" d="M267.4,435.1c0,0.8-0.5,1.4-1.2,1.6c-46.8,11.3-93.9,2.6-132.1-20.5l0,0c-18.4-53.6-94.1-95.5-102.8-172.8
		l0,0c10.9-16.6,19.6-34.4,26-53c3.3,24.7,16.6,46.8,36.3,61.4c10.9,59.7,52.5,110.7,111.4,132.4c1.1,0.4,2.1-0.4,2.2-1.4
		c1.4-38.5-9.7-75.2-30.5-105.5C231.7,310.9,265.9,370.5,267.4,435.1z"/>
	<path class="st3" d="M288.5,400.3c-12.5-42.7-39.6-79.4-76-104.1c-8.3-2.9-16.4-6.6-24.2-11.3c0.1,0.1,0.4,0.3,0.5,0.4
		c40.6,29.3,67.8,73.5,76,122.5c-0.1-0.7-0.3-1.4-0.4-2.1c0.1,0.9,0.4,1.8,0.5,2.9C273,406.4,280.9,403.6,288.5,400.3z"/>
	<path class="st3" d="M154.7,424.8c-0.5-8.3-2.6-16.2-5.9-23.7c-22.2-51.4-99.4-86.9-115.4-161.3c-0.8,1.2-1.4,2.4-2.2,3.6l0,0
		c8.5,77.3,84.4,119.1,102.8,172.8l0,0c6.3,3.8,12.9,7.2,19.6,10.3C154.3,426.1,154.7,425.5,154.7,424.8z"/>

	<path class="st12" d="M126.4,266.2c14.7-13.8,20.4-27.1,21.8-39.6l0,0c-1.1,10.3,2.8,20.6,10.1,28.1c6.7,7,12.8,14.5,18.3,22.4
		c20.6,30.2,32,66.9,30.5,105.5c0,1.1-1.2,1.8-2.2,1.4C146,362.3,104.5,311.2,93.5,251.6c9.2,6.8,19.9,12,31.4,15
		C125.4,266.8,125.9,266.6,126.4,266.2z"/>

	<path class="st13" d="M176.5,277.1c-5.4-7.9-11.6-15.4-18.3-22.4c-7.2-7.6-11-17.9-10.1-28.1l0,0c-1.3,11.8-6.6,24.3-19.6,37.5
		c19.2,57.1,55.2,91.9,78.4,118.2C208.3,343.8,197.2,307.3,176.5,277.1z"/>
	<path class="st2" d="M181,351.8c7.1,8.4,13.7,15.9,18.4,21.4c4.7,5.5,7.5,8.9,7.5,8.9s-3.2-3.3-8.2-8.4c-5-5.3-12-12.5-19.1-20.9
		c-7.1-8.4-13.1-16.6-17.2-22.5c-2-3-3.7-5.5-4.7-7.2c-1.1-1.7-1.7-2.6-1.7-2.6s0.7,0.9,1.8,2.5c1.2,1.7,2.9,3.9,5.1,6.8
		C167.6,335.5,173.9,343.4,181,351.8z"/>
	<path class="st3" d="M176.5,277.1c20.6,30.2,32,66.9,30.5,105.5c0,1.1-1.2,1.8-2.2,1.4c-58.9-21.7-100.5-72.8-111.4-132.4
		c11.8,64.4,56.7,119.5,120.3,143.1c1.1,0.4,2.2-0.4,2.4-1.6c1.6-39.8-9.6-78-30.2-109.8C182.8,281.2,179.7,279.1,176.5,277.1z"/>

	<path class="st14" d="M148.1,226.7c3.6-32.5-22.9-59.3,0.7-74.8c-4.6,18.9,10.1,40.1,31.8,38.8c-16.2,4.2-27.3,16.2-31.4,30.4
		C148.8,222.8,148.4,224.7,148.1,226.7L148.1,226.7z"/>

	<path class="st15" d="M180.6,190.6c-6.8,0.4-13-1.4-18-4.7c-10.1,8.3-14.1,17.6-14.6,26.4c0.4,3,0.5,6,0.5,9.2
		c0.1,0.5,0.1,1.1,0.3,1.6c0.1-0.7,0.3-1.4,0.5-2.1C153.2,206.8,164.4,194.8,180.6,190.6z"/>

	<path class="st16" d="M161,129.2c0.4,2.5-0.4,5-2.4,6.6c-5.3,4.6-8.5,10.3-9.9,16c-23.4,15.5,2.9,42.3-0.7,74.8
		c-1.3,12.5-7.1,25.8-21.8,39.6c-0.4,0.4-0.9,0.5-1.4,0.4c-11.7-3-22.2-8.2-31.4-15c-19.7-14.6-33-36.7-36.3-61.4l0,0
		c-0.9-6.4-1.1-13-0.5-19.7c2.2-27.3,16.4-51.1,37.3-66.4c27.6,2.1,55.5-2.9,80.9-14.6C164.5,99.4,158.9,113.8,161,129.2z"/>

	<path class="st17" d="M169.5,95.4c-83.1,31.4-82.4,111.2-43.8,171.2c0.1-0.1,0.4-0.1,0.5-0.3c14.7-13.8,20.4-27.1,21.8-39.6
		c3.6-32.5-22.9-59.3,0.7-74.8c1.3-5.8,4.6-11.3,9.9-16c1.8-1.7,2.6-4.2,2.4-6.6C159.3,116.6,162.7,104.8,169.5,95.4z"/>
	<path class="st2" d="M101.4,187.6c0,10.9,1.4,20.6,2.8,27.7c0.7,3.6,1.3,6.3,1.8,8.3s0.8,3,0.8,3s-0.4-1.1-1.1-2.9
		c-0.7-1.8-1.4-4.7-2.4-8.2c-1.8-7-3.7-16.8-3.7-27.9c0-5.5,0.5-10.8,1.3-15.5c0.9-4.7,1.8-8.9,3-12.4c0.5-1.7,1.1-3.3,1.6-4.6
		c0.5-1.3,0.9-2.5,1.4-3.4c0.8-1.8,1.3-2.9,1.3-2.9s-0.4,1.1-1.1,2.9c-0.4,0.9-0.8,2.1-1.2,3.4c-0.4,1.3-0.9,2.9-1.3,4.6
		c-0.9,3.4-1.7,7.6-2.4,12.2C101.8,177.1,101.4,182.2,101.4,187.6z"/>
	<path class="st3" d="M126.4,266.2c-0.4,0.4-0.9,0.5-1.4,0.4c-11.7-3-22.2-8.2-31.4-15c-19.7-14.6-33-36.7-36.3-61.4
		c-4.2,12.5-9.6,24.6-15.9,36.2c10.9,19.3,28.4,34.1,49.2,41.4c10.8,3.8,22.5,5.7,34.4,5.1c0.5,0,1.1-0.3,1.3-0.8
		c2.2-3.9,4.1-7.8,5.5-11.4C130.1,262.6,128.3,264.4,126.4,266.2z"/>

	<path class="st18" d="M213.1,69c2.4,3.2,0.1,7.8-3.9,7.6c-13.4-0.7-25.6,4.5-34.3,12.9c-25.2,11.7-53.1,16.7-80.9,14.6
		c-23.4-1.7-46.8-8.7-68.1-20.8c-4.1-2.4-8.2-4.9-12.1-7.6c-0.8-0.5-0.9-1.8-0.1-2.5C63.6,25.7,136,10,201.4,32.6
		C201,45.7,205,58.5,213.1,69z"/>

	<path class="st19" d="M20.4,80.2c1.7,1.1,3.6,2.2,5.4,3.2c21.4,12.2,44.7,19.1,68.1,20.8c27.6,2.1,55.5-2.9,80.9-14.6
		c8.8-8.5,20.9-13.5,34.3-12.9c2.2,0.1,4.1-1.3,4.7-3.3C142.2,57.8,69.2,61.9,20.4,80.2z"/>
	<path class="st3" d="M56.3,192.3c-6.3,17.9-14.7,35-25.2,51c-6.7,10.3-14.2,20-22.6,29.2c-0.5,0.7-1.6,0.7-2.2,0.1
		c-3.4-2.6-6.6-5.4-9.6-8.3c-23.1-22.6-35.5-54.2-33.7-86.5c0.3-4.6,0.8-9.1,1.6-13.7c2-11,5.7-21.6,10.5-31.2
		c-8.2,15.1-13,32.3-13.4,50.2c-0.1,4.6,0,9.2,0.5,13.8c3,32.2,20,61.7,46.3,80.5c3.4,2.5,7,4.7,10.7,6.8c0.8,0.4,1.7,0.1,2.1-0.5
		c6.8-10.4,12.9-21.2,17.9-32.2c8.3-18,14.2-36.9,17.8-56.4l0,0C56.9,194.2,56.6,193.3,56.3,192.3z"/>

	<path class="st20" d="M93.9,104.1c-20.9,15.3-35.1,39.1-37.3,66.4c-0.5,6.7-0.4,13.3,0.5,19.7l0,0c-6.3,18.5-15.1,36.4-26,53
		c-6.7,10.3-14.2,20-22.6,29.2c-0.5,0.7-1.6,0.7-2.2,0.1c-3.4-2.6-6.6-5.4-9.6-8.3c-23.1-22.6-35.5-54.2-33.7-86.5
		c0.3-4.6,0.8-9.1,1.6-13.7c6.4-35.4,29.3-65.2,61-80.7l0,0C47.1,95.6,70.4,102.4,93.9,104.1z"/>

	<path class="st21" d="M137.7,441c0.1-0.3,0.3-0.5,0.3-0.8c0.1-8.4-1.3-16.3-4.1-24.1c-18.4-53.6-94.1-95.5-102.8-172.8l0,0
		c-6.7,10.3-14.2,20-22.6,29.2c-0.5,0.7-1.6,0.7-2.2,0.1c-1.4-1.2-2.9-2.4-4.3-3.6C27.3,370.4,90.9,415.2,137.7,441z"/>
	<path class="st2" d="M46.2,363.3c5.5,7.5,11.2,14.3,16.7,20.2c2.6,3,5.4,5.8,7.9,8.3c2.6,2.5,4.9,4.9,7.2,7
		c4.5,4.2,8.2,7.5,10.8,9.6c2.6,2.2,4.1,3.4,4.1,3.4s-1.6-1.2-4.2-3.3c-2.8-2.1-6.6-5.1-11.2-9.2c-2.4-2-4.7-4.3-7.4-6.8
		c-2.5-2.5-5.4-5.3-8.2-8.2c-5.5-5.9-11.4-12.8-17-20.2c-11.2-15.1-19.2-30.1-24.3-41.3c-1.2-2.8-2.4-5.4-3.3-7.6
		c-0.9-2.2-1.7-4.2-2.2-5.8c-1.2-3.2-1.8-5-1.8-5s0.8,1.7,2.1,4.9c0.7,1.6,1.4,3.6,2.5,5.7c1.1,2.2,2.2,4.7,3.6,7.5
		C26.7,333.4,35.2,348.3,46.2,363.3z"/>

	<path class="st22" d="M265.1,436.9c0.4-0.1,0.7-0.1,1.1-0.3c0.8-0.1,1.2-0.8,1.2-1.6c-1.4-64.7-35.6-124.1-90.9-157.9
		c20.6,30.2,32,66.9,30.5,105.5c0,1.1-1.2,1.8-2.2,1.4c-58.9-21.7-100.5-72.8-111.4-132.4c-2.5-1.8-4.9-3.7-7.1-5.8
		C118.9,362.9,231.7,421.8,265.1,436.9z"/>
	<path class="st2" d="M223.1,413.4c11.3,7.1,21.8,13,29.5,17.1c3.8,2.1,7,3.7,9.2,4.7c2.1,1.1,3.4,1.7,3.4,1.7s-1.3-0.5-3.6-1.4
		c-2.2-0.9-5.5-2.4-9.5-4.3c-7.9-3.8-18.7-9.3-30-16.4c-11.3-7-21.2-14.2-28-19.6c-1.7-1.3-3.3-2.6-4.6-3.7
		c-1.3-1.1-2.5-2.1-3.4-2.9c-1.8-1.6-2.9-2.5-2.9-2.5s1.1,0.8,3,2.2c0.9,0.8,2.2,1.6,3.6,2.6c1.4,1.1,3,2.2,4.7,3.4
		C201.8,399.6,211.7,406.4,223.1,413.4z"/>

	<path class="st23" d="M6.9,272.9c0.5,0.1,1.2,0,1.6-0.5c8.4-9.2,15.9-18.9,22.6-29.2c10.9-16.6,19.6-34.4,26-53l0,0
		c-0.9-6.4-1.1-13-0.5-19.7c2.2-27.3,16.4-51.1,37.3-66.4c-0.3,0-0.5,0-0.8-0.1C-5.6,136.9-3,241.8,6.9,272.9z"/>
	<path class="st2" d="M3.7,222.7c-1.2,13.9-0.7,26.6,0.4,35.6c0.5,4.6,1.2,8.2,1.7,10.7c0.7,2.5,0.9,3.8,0.9,3.8s-0.4-1.3-1.2-3.8
		c-0.7-2.5-1.6-6-2.4-10.7c-1.6-9.1-2.5-21.8-1.3-35.9c0.5-7,1.7-13.7,2.9-19.6c0.8-2.9,1.3-5.8,2.1-8.4c0.8-2.6,1.4-5,2.2-7.2
		c0.8-2.1,1.4-4.1,2.1-5.8c0.7-1.7,1.3-3.2,1.8-4.3c1.1-2.4,1.6-3.7,1.6-3.7s-0.5,1.3-1.3,3.7c-0.4,1.2-1.1,2.6-1.6,4.3
		c-0.5,1.7-1.2,3.7-1.8,5.9c-0.7,2.2-1.2,4.6-2,7.2c-0.7,2.6-1.2,5.4-1.8,8.4C5.4,209.2,4.3,215.7,3.7,222.7z"/>
	<path class="st3" d="M174.7,89.5c-25.2,11.7-53.1,16.7-80.9,14.6c-23.4-1.7-46.8-8.7-68.1-20.8c-0.3-0.1-0.7-0.4-0.9-0.5
		c-4.2,4.2-8.3,8.7-12.1,13.3c-0.7,0.8-0.4,2,0.5,2.5c4.2,2.2,8.5,4.2,12.9,6c22.7,9.6,46.7,13.5,70.2,12.5
		c27.7-1.3,54.8-9.6,78.5-24.3c5.8-7.1,13.7-12.6,23-15.3C188.9,79.3,181,83.5,174.7,89.5z"/>
	<path class="st3" d="M174.4,192.7c2-0.8,4.1-1.6,6.3-2.1c-21.7,1.2-36.4-19.9-31.8-38.8c1.3-5.8,4.6-11.3,9.9-16
		c1.8-1.7,2.6-4.2,2.4-6.6c-2.1-15.4,3.6-29.8,13.8-39.7c8.8-8.5,20.9-13.5,34.3-12.9c4.1,0.1,6.3-4.5,3.9-7.6
		c-8-10.4-12.1-23.3-11.7-36.3c-7.8-2.6-15.6-4.9-23.5-6.4c-0.8,15.6,4.9,30.8,15.6,42.1c2.8,2.9,0.9,7.8-3,8
		c-28.9,1.7-49.2,29.5-42.2,57.5c0.7,2.4,0.1,5-1.6,6.8C126.2,162.9,146.3,197.5,174.4,192.7z"/>
	<path class="st3" d="M290.5,149.9c-4.2,2-5.9,7-3.8,11.2c2,4.2,7,5.9,11.2,3.8c4.2-2,5.9-7,3.8-11.2
		C299.7,149.6,294.7,147.9,290.5,149.9z"/>
	<path class="st24" d="M301.7,153.8c-0.8-1.6-2-2.9-3.4-3.7c0.1,0.1,0.3,0.3,0.3,0.4c2,4.2,0.3,9.2-3.8,11.2
		c-2.5,1.2-5.4,1.1-7.8-0.3c2.1,3.8,7,5.4,10.9,3.4C302.1,162.9,303.8,157.9,301.7,153.8z"/>

	<path class="st25" d="M339.4,134.6c4.5,11.7,7.2,23.4,8.8,34.1c0.3,2.6,0.7,5.3,0.9,7.9c0.4,2.5,0.4,5,0.5,7.4
		c0.1,2.4,0.3,4.7,0.3,7c0,2.2-0.1,4.3-0.1,6.4c0,4.1-0.5,7.8-0.8,10.9c-0.1,1.6-0.3,3-0.5,4.5c-0.3,1.3-0.4,2.6-0.7,3.7
		c-0.8,4.5-1.2,6.8-1.2,6.8s-0.3-2.5-0.7-7c-0.1-1.1-0.1-2.4-0.3-3.7c-0.1-1.3-0.4-2.8-0.5-4.3c-0.4-3.2-0.7-6.7-1.4-10.5
		c-0.3-2-0.7-3.9-0.9-6c-0.3-2.1-0.9-4.3-1.3-6.6c-0.5-2.2-0.8-4.6-1.4-7c-0.5-2.4-1.2-4.9-1.7-7.4c-2.6-10-5.9-20.6-10.1-31.7
		c-4.2-11-8.9-21.2-13.7-30.4c-1.2-2.2-2.4-4.5-3.6-6.6c-1.1-2.2-2.4-4.2-3.6-6.2c-1.2-2-2.2-3.9-3.4-5.8c-1.2-1.8-2.2-3.6-3.3-5.3
		c-2.1-3.4-4.2-6.2-5.9-8.8c-0.9-1.3-1.7-2.5-2.5-3.7c-0.8-1.1-1.6-2.1-2.2-2.9c-2.6-3.6-4.1-5.7-4.1-5.7s2,1.4,5.5,4.3
		c0.9,0.7,1.8,1.4,2.9,2.4c1.1,0.9,2.1,2,3.3,3c2.4,2.2,5.1,4.6,7.9,7.6c1.4,1.4,2.9,3,4.3,4.7c1.6,1.6,2.9,3.4,4.5,5.3
		c1.4,1.8,3.2,3.7,4.6,5.9c1.4,2.1,3,4.2,4.5,6.4C329.2,112.4,335,122.9,339.4,134.6z"/>
	<path class="st26" d="M63.8,40.2c5.5-2,10.9-3,15.9-3.4c5-0.4,9.6-0.4,13.3,0.1c1.8,0.1,3.6,0.5,5,0.8c1.4,0.3,2.8,0.5,3.8,0.8
		c2.1,0.5,3.2,0.9,3.2,0.9s-1.2,0.4-3.2,1.1c-1.1,0.3-2.2,0.7-3.6,1.1c-1.4,0.4-3,0.9-4.7,1.4c-3.4,1.1-7.5,2.4-11.8,3.8
		s-9.1,3.2-14.1,4.9c-5,1.7-9.6,3.4-13.9,5c-4.3,1.6-8.3,3-11.6,4.5c-1.7,0.7-3.2,1.3-4.6,1.8C36.2,63.5,35,64,34,64.4
		c-2,0.8-3,1.2-3,1.2s0.7-0.9,1.8-2.6c0.7-0.9,1.4-1.8,2.4-3c1.1-1.2,2.1-2.5,3.4-3.7c2.6-2.6,6.2-5.7,10.3-8.4
		C53.4,44.8,58.3,42.2,63.8,40.2z"/>
	<path class="st26" d="M-23.3,145.1c2.8-6.2,6.3-11.7,10-16.4c1.8-2.2,3.7-4.3,5.5-6.2c1.8-1.8,3.7-3.4,5.4-4.9
		c1.7-1.4,3.3-2.6,4.7-3.6c1.4-1.1,2.8-1.8,3.8-2.5c2.1-1.3,3.3-1.8,3.3-1.8s-0.7,1.2-2,3.3c-0.7,1.1-1.4,2.2-2.4,3.7s-2,3-2.9,4.9
		c-1.1,1.8-2.2,3.8-3.4,5.9c-1.2,2.1-2.4,4.5-3.7,6.8c-2.5,4.9-5,10.1-7.5,15.6c-2.5,5.7-4.6,11-6.6,16c-0.9,2.5-1.8,5-2.6,7.2
		c-0.8,2.2-1.4,4.5-2.1,6.4s-1.2,3.8-1.6,5.5c-0.5,1.6-0.9,3-1.2,4.2c-0.7,2.4-1.1,3.7-1.1,3.7s-0.4-1.3-0.8-3.7
		c-0.3-1.2-0.5-2.6-0.8-4.5c-0.1-1.7-0.5-3.7-0.5-5.9c-0.1-2.2-0.1-4.6,0-7.2c0.1-2.6,0.4-5.4,0.8-8.3
		C-27.8,157.8-26.1,151.4-23.3,145.1z"/>
	<path class="st26" d="M198.6,438c-5.4-1.3-10.4-3.3-14.7-5.4c-4.3-2.2-8-4.6-10.9-6.8c-1.4-1.1-2.8-2.2-3.8-3.2
		c-1.1-0.9-2-1.8-2.8-2.5c-1.4-1.4-2.2-2.4-2.2-2.4s1.2,0.3,3.2,0.7c0.9,0.3,2.1,0.5,3.6,0.8c1.4,0.3,2.9,0.7,4.6,1.1
		c3.4,0.8,7.4,1.7,11.7,2.8c4.3,0.9,9.1,2.1,14.1,3.3c5,1.2,9.6,2.4,13.9,3.4c4.3,1.1,8.3,2.1,11.7,2.9c1.7,0.4,3.3,0.8,4.6,1.2
		c1.3,0.4,2.6,0.7,3.6,0.9c2,0.5,3,0.8,3,0.8s-1.1,0.4-3,1.1c-0.9,0.4-2.1,0.7-3.6,1.1c-1.4,0.4-3,0.8-4.9,1.1
		c-3.6,0.7-7.9,1.2-12.8,1.2C209.4,439.7,204,439.1,198.6,438z"/>
	<path class="st26" d="M-2.4,361.7c-3.2-5.8-5.5-11.6-7.2-17.1c-0.8-2.8-1.4-5.4-2-7.9c-0.5-2.5-0.9-4.9-1.2-7
		c-0.3-2.1-0.4-4.1-0.5-5.8c-0.1-1.7-0.1-3.2-0.1-4.3c0-2.4,0.1-3.7,0.1-3.7s0.7,1.2,1.7,3.3c0.5,1.1,1.2,2.4,2,3.8
		c0.8,1.4,1.6,3.2,2.5,5c1.8,3.7,4.2,8,6.7,12.6c2.6,4.6,5.4,9.7,8.4,15.1c3,5.3,5.9,10.4,8.5,15c2.8,4.6,5.1,8.8,7.4,12.4
		c1.1,1.8,2.1,3.4,2.9,4.7c0.9,1.4,1.6,2.6,2.2,3.7c1.3,2,2,3.2,2,3.2s-1.2-0.7-3.3-1.8c-1.1-0.7-2.4-1.3-3.7-2.4
		c-1.4-0.9-3-2.1-4.7-3.4c-1.7-1.3-3.6-2.9-5.4-4.6c-1.8-1.7-3.8-3.7-5.7-5.8C4.7,372.5,0.8,367.5-2.4,361.7z"/>
	<path class="st26" d="M152.8,355.6c-4.1-3.6-7.6-7.4-10.4-11.2c-2.8-3.8-5-7.4-6.6-10.7c-1.6-3.2-2.6-5.9-3.3-7.8
		c-0.7-1.8-0.9-2.9-0.9-2.9s0.9,0.7,2.5,1.8c1.6,1.2,3.7,3,6.4,5.1c2.6,2.1,5.8,4.6,9.2,7.4c3.4,2.8,7.1,5.8,10.8,8.9
		c3.8,3.2,7.4,6.3,10.5,9.2c3.3,2.9,6.2,5.7,8.7,7.9c2.5,2.2,4.6,4.2,6,5.5c1.4,1.3,2.2,2.1,2.2,2.1s-1.1-0.1-3-0.4s-4.7-0.9-8.2-2
		c-3.4-1.1-7.4-2.6-11.6-4.7C161.3,362,156.9,359.1,152.8,355.6z"/>
	<path class="st26" d="M59.9,172.1c0.7-6,2.1-11.8,3.9-16.8c0.9-2.5,2-4.7,3-6.8c1.1-2.1,2.2-3.9,3.3-5.7c1.1-1.7,2.1-3.2,3.2-4.3
		c0.9-1.3,1.8-2.2,2.6-3.2c1.4-1.7,2.4-2.5,2.4-2.5s-0.3,1.2-0.7,3.4c-0.3,1.1-0.5,2.4-0.8,3.8c-0.3,1.4-0.7,3.2-0.9,5
		c-0.4,1.8-0.8,3.8-1.1,6c-0.4,2.1-0.7,4.5-1.1,6.8c-0.7,4.7-1.3,10-1.8,15.4c-0.5,5.4-0.9,10.7-1.3,15.5c-0.1,2.4-0.3,4.7-0.4,6.8
		c-0.1,2.2-0.1,4.2-0.1,6c-0.1,1.8,0,3.6,0,5.1c0,1.6,0,2.9,0,3.9c0,2.2,0,3.4,0,3.4s-0.7-1.1-1.8-2.9c-0.5-0.9-1.2-2.1-1.8-3.6
		c-0.7-1.4-1.4-3-2.1-4.9c-0.7-1.8-1.4-3.9-2.1-6.2c-0.7-2.2-1.2-4.7-1.6-7.4C59.6,184.2,59.4,178.3,59.9,172.1z"/>
	<path class="st26" d="M353.9,320.3c6.7-10.3,12.4-20.2,17.2-29.7c1.2-2.4,2.2-4.7,3.4-7c0.5-1.2,1.1-2.2,1.6-3.4
		c0.5-1.2,0.9-2.2,1.4-3.3c0.9-2.2,2-4.2,2.8-6.3c0.8-2.1,1.6-4.1,2.4-5.9c1.6-3.8,2.6-7.2,3.7-10.4c0.5-1.6,1.1-3,1.4-4.3
		c0.4-1.3,0.8-2.5,1.1-3.7c1.3-4.5,2.1-6.8,2.1-6.8s0,2.5-0.3,7.2c0,1.2-0.1,2.5-0.3,3.8c-0.1,1.4-0.3,2.9-0.5,4.6
		c-0.4,3.3-0.8,7.1-1.7,11.2c-0.4,2.1-0.8,4.2-1.3,6.4c-0.4,2.2-1.2,4.5-1.7,7c-0.3,1.2-0.7,2.4-1.1,3.7c-0.3,1.2-0.7,2.5-1.2,3.7
		c-0.9,2.5-1.7,5-2.6,7.6c-3.9,10.4-9.3,21.4-16.4,32.3c-7.1,10.8-15.3,20.1-23.1,27.9c-2.1,1.8-4.1,3.7-6,5.5
		c-0.9,0.9-2,1.7-2.9,2.5c-1.1,0.8-2,1.6-2.9,2.4c-2,1.4-3.8,3-5.7,4.3c-1.8,1.3-3.7,2.5-5.4,3.7c-3.4,2.4-6.7,4.2-9.6,5.9
		c-1.4,0.8-2.8,1.6-3.9,2.2c-1.3,0.7-2.4,1.2-3.4,1.7c-4.2,2.1-6.4,3.2-6.4,3.2s2-1.7,5.4-4.7c0.9-0.8,1.8-1.6,2.9-2.5
		c1.1-0.9,2.1-2,3.4-3c2.4-2.2,5.3-4.6,8-7.5c1.4-1.4,3-2.9,4.6-4.5c1.6-1.6,3-3.3,4.7-5c0.8-0.9,1.6-1.7,2.5-2.6
		c0.8-0.9,1.7-1.8,2.5-2.8c1.7-1.8,3.3-3.8,5.1-5.9C340.1,339.6,347.2,330.4,353.9,320.3z"/>
	<path class="st26" d="M-50,236.4c0.3-5.3,1.2-10.1,2.2-14.6c1.2-4.3,2.5-8.3,3.8-11.4c1.3-3.2,2.6-5.7,3.6-7.2
		c0.9-1.7,1.6-2.5,1.6-2.5s0,1.1-0.1,3c-0.1,1.8-0.3,4.6-0.4,7.9c-0.3,6.6-0.7,15.5-1.2,25.4c-0.5,9.7-1.1,18.7-1.4,25.2
		c-0.1,3.3-0.4,6-0.4,7.9c-0.1,1.8-0.3,3-0.3,3s-0.5-0.9-1.3-2.8c-0.8-1.7-1.8-4.3-2.9-7.6c-1.1-3.3-2-7.2-2.6-11.7
		C-49.9,246.6-50.3,241.6-50,236.4z"/>
</g>
</svg>